<?xml version="1.0" standalone="no"?><!DOCTYPE svg PUBLIC "-//W3C//DTD SVG 1.1//EN" "http://www.w3.org/Graphics/SVG/1.1/DTD/svg11.dtd"><svg t="1781791314822" class="icon" viewBox="0 0 1024 1024" version="1.1" xmlns="http://www.w3.org/2000/svg" p-id="6224" xmlns:xlink="http://www.w3.org/1999/xlink" width="200" height="200"><path d="M903.168 666.624L757.76 517.12s139.264-203.264 41.984-295.424c-70.656-67.584-167.936-117.76-282.112-117.76-43.008 0-88.576 7.168-136.192 23.04-152.576 51.2-238.592 167.936-263.168 206.848-4.608 7.168-4.096 16.384 2.048 22.528l148.992 147.456S159.744 674.816 204.8 770.048C248.32 862.208 410.112 921.6 502.784 921.6c3.584 0 6.656-0.512 9.728-0.512 110.08-5.12 281.6-50.176 393.216-231.936a17.92 17.92 0 0 0-2.56-22.528zM176.64 339.456c33.28-44.544 106.496-125.44 221.184-163.84 40.448-13.312 80.384-20.48 119.808-20.48 113.664 0 197.12 56.32 246.784 103.424 17.408 16.384 20.992 42.496 16.896 72.192-9.728-20.48-22.528-38.912-39.424-54.784-36.864-35.84-86.528-54.784-143.872-54.784-88.064 0-184.832 46.08-259.072 122.88-27.136 28.16-49.664 58.368-67.584 90.112L176.64 339.456z m474.624 306.176c-67.072 69.12-150.528 107.008-222.208 107.008-41.984 0-79.872-13.312-108.032-40.448-76.288-73.728-51.712-222.72 54.784-332.8 67.072-69.632 150.528-107.008 222.208-107.008 42.496 0 80.384 13.312 108.544 40.448 76.288 73.216 51.2 222.208-55.296 332.8z m-141.312 224.256s-4.608 0.512-7.168 0.512c-85.504 0-221.184-57.856-251.904-122.368-6.144-13.312-7.168-31.744-4.608-52.736 9.728 19.968 22.528 37.888 38.912 53.76 36.864 35.84 87.04 54.784 143.872 54.784 88.064 0 184.832-46.08 259.072-122.88 27.136-28.16 50.176-59.392 68.608-91.648l91.648 94.208c-105.472 152.576-256 182.784-338.432 186.368z" fill="#5F5AEB" p-id="6225"></path></svg>