<?xml version="1.0" standalone="no"?><!DOCTYPE svg PUBLIC "-//W3C//DTD SVG 1.1//EN" "http://www.w3.org/Graphics/SVG/1.1/DTD/svg11.dtd"><svg t="1781792293731" class="icon" viewBox="0 0 1024 1024" version="1.1" xmlns="http://www.w3.org/2000/svg" p-id="11451" xmlns:xlink="http://www.w3.org/1999/xlink" width="200" height="200"><path d="M424.45036 155S543.41036 23.21 602.20036 40.63c87.19 25.84 28.45 118.1 28.45 118.1s37.91-86.84 119.62-61.47c63.15 19.6 3.11 103.24 3.11 103.24s114.47-35.72 134.07 7.84c18.79 41.75-39.19 91.47-39.19 91.47s81.58-11.15 95.8 45.74c8.71 34.85-43.55 61-43.55 61s63.15 17.43 63.15 50.1c0 43.55-43.55 54.44-43.55 54.44s50.08 6.54 50.08 43.56c0 41.44-47.9 63.16-47.9 63.16v32.67s85.42-33.21 100.16 15.25c15.24 50.09-87.1 91.47-87.1 91.47s58.8 37 21.78 67.52c-30.9 25.46-98-8.71-98-8.71L547.77036 223.58z" fill="#F69706" p-id="11452"></path><path d="M149.30036 519.79s-47.91-61-89.28-65.34-78.39 47.91-50.08 93.65 139.36 45.74 139.36 45.74z" fill="#FDB804" p-id="11453"></path><path d="M428.00036 153.89s139.36-26.14 287.42 28.31 274.36 296.2 196 540.14-267.82 257-363.63 259.17S345.27036 951 258.17036 868.26c-74.52-70.81 124-695.37 124-695.37z" fill="#F69706" p-id="11454"></path><path d="M428.00036 153.89S166.85036 227.5 134.00036 565.52c-21.72 224.33 128.44 355.36 267.88 389.86C604.38036 1005.47 735.00036 938 802.53036 807.28S861.32036 447.91 776.40036 302C681.00036 138 428.00036 153.89 428.00036 153.89z" fill="#FFEA44" p-id="11455"></path><path d="M778.58036 639.57s26.13-56.62 76.21-58.8 78.39 50.09 56.61 87.12-65.32 61-111 45.74-21.82-74.06-21.82-74.06z" fill="#FDB804" p-id="11456"></path><path d="M391.00036 471.87c101.52 16.92 84.92 67.52 84.92 67.52S465.00036 626.51 354.00036 611.26c-80.57-11.06-65.35-102.36-65.35-102.36s-2.18-54.45 102.35-37.03z" fill="#600604" p-id="11457"></path><path d="M231.816271 442.580665a133.41 185.21 26.5 1 0 165.280594-331.501587 133.41 185.21 26.5 1 0-165.280594 331.501587Z" fill="#FFEA44" p-id="11458"></path><path d="M450.320556 470.185582a150.46 185.21 26.49 1 0 165.222733-331.530428 150.46 185.21 26.49 1 0-165.222733 331.530428Z" fill="#FFEA44" p-id="11459"></path><path d="M253.882286 435.104843a120.85 163.34 26.5 1 0 145.763901-292.357157 120.85 163.34 26.5 1 0-145.763901 292.357157Z" fill="#FFFFFF" p-id="11460"></path><path d="M465.50948 483.988057a129.03 175.16 21.31 1 0 127.311135-326.367856 129.03 175.16 21.31 1 0-127.311135 326.367856Z" fill="#FFFFFF" p-id="11461"></path><path d="M333.75036 261.64A21.84 21.84 0 0 0 306.00036 275.05l-23.61 67.89a21.77 21.77 0 1 0 41.13 14.3l23.62-67.88a21.84 21.84 0 0 0-13.39-27.72zM579.35036 304.82a21.84 21.84 0 0 0-26.88-15l-69.14 19.53a21.84 21.84 0 0 0-15.05 26.87 21.69 21.69 0 0 0 9.33 12.44l53.48 44.23a21.83 21.83 0 0 0 30.66-2.9 21.84 21.84 0 0 0-2.91-30.66l-23.48-19.42 28.94-8.17a21.86 21.86 0 0 0 15.05-26.92z" p-id="11462"></path><path d="M474.10036 547.61C459.11036 535.69 435.53036 528 409.00036 528c-45.29 0-82 22.39-82 50 0 12.06 7 23.11 18.65 31.75 2.66 0.6 5.42 1.11 8.33 1.51 89.84 12.33 114.12-42.32 120.12-63.65z" fill="#B32120" p-id="11463"></path></svg>